<svg width="32" height="32" viewBox="0 0 32 32" fill="none" xmlns="http://www.w3.org/2000/svg">
<path d="M4.48269 19.2383L8.35045 19.2383C9.41676 19.2383 10.2843 18.3707 10.2843 17.3044L10.2843 15.5464C10.2843 14.7385 10.9417 14.0814 11.7491 14.0813L19.3726 14.0845C20.1823 14.0845 20.8376 14.7398 20.8376 15.5496C20.8376 15.8328 20.8376 16.6459 20.8376 17.3077C20.8376 18.3693 21.695 19.2416 22.7725 19.2415L26.6332 19.2354C27.6995 19.2354 28.567 18.3679 28.567 17.3044C28.5705 16.512 28.5716 16.2564 28.5731 15.9012C28.5731 12.0559 25.4448 8.92748 21.5996 8.92748L9.52252 8.92433C5.66816 8.9243 2.54884 12.0433 2.54887 15.898L2.54884 17.3045C2.54884 18.3708 3.41635 19.2383 4.48269 19.2383ZM27.2778 17.3016C27.2778 17.657 26.9887 17.9462 26.6322 17.9462L22.7715 17.9523C22.4152 17.9523 22.1269 17.664 22.1269 17.3077L22.1269 16.663L27.2806 16.663L27.2778 17.3016ZM9.52231 10.2136L21.5995 10.2168C24.5745 10.2168 26.992 12.4707 27.2594 15.3738L22.1207 15.3738C22.0305 13.9333 20.8361 12.7952 19.3728 12.7952L11.7497 12.7921C11.7496 12.7921 11.7495 12.7921 11.7494 12.7921C10.2876 12.792 9.09153 13.9282 9.00129 15.3705H3.86247C4.12708 12.4748 6.5268 10.2136 9.52231 10.2136ZM3.83804 17.3045V16.6598L8.99506 16.6598L8.99509 17.3044C8.99506 17.6599 8.70594 17.9491 8.35045 17.9491H4.48269C4.1272 17.9491 3.83801 17.6599 3.83804 17.3045Z" fill="white"/>
</svg>
